# xmcd
#
# Track frame offsets:
#	150
#	13846
#	25410
#	37859
#	48819
#	65696
#	83497
#	101874
#	112901
#	127340
#	139795
#	153865
#
# Disc length: 2269 seconds
#
# Revision: 1
# Processed by: cddbd v1.5.2PL0 Copyright (c) Steve Scherf et al.
# Submitted via: EasyCDDAExtractor 16.0.1.1
#
DISCID=9808db0c
DTITLE=Circle The Wagons - Cumberland Gap
DYEAR=2004
DGENRE=Bluegrass
TTITLE0=Roving Gambler
TTITLE1=Ribbon Of Darkness
TTITLE2=Old Home Place
TTITLE3=Hey Doll Baby
TTITLE4=Louis Collins
TTITLE5=Hobo Song
TTITLE6=Big Iron
TTITLE7=Arms Full Of Empty
TTITLE8=Thanks A Lot
TTITLE9=Flint Hill Special
TTITLE10=I Won't Back Down
TTITLE11=Outlaw Blues
EXTD=
EXTT0=
EXTT1=
EXTT2=
EXTT3=
EXTT4=
EXTT5=
EXTT6=
EXTT7=
EXTT8=
EXTT9=
EXTT10=
EXTT11=
PLAYORDER=
